HIERARCHY
ROOT root
{
	OFFSET 0.000000 0.000000 0.000000
	CHANNELS 6 Xposition Yposition Zposition Zrotation Yrotation Xrotation
	JOINT lhip
	{
		OFFSET 0.058581 -0.082280 -0.017664
		CHANNELS 3 Zrotation Yrotation Xrotation
		JOINT lknee
		{
			OFFSET 0.043451 -0.386469 0.008037
			CHANNELS 3 Zrotation Yrotation Xrotation
			JOINT lankle
			{
				OFFSET -0.014790 -0.426874 -0.037428
				CHANNELS 3 Zrotation Yrotation Xrotation
				JOINT ltoe
				{
					OFFSET 0.041054 -0.060286 0.122042
					CHANNELS 3 Zrotation Yrotation Xrotation
					End Site
					{
						OFFSET 0.000000 0.000000 0.000000
					}
				}
			}
		}
	}
	JOINT rhip
	{
		OFFSET -0.060310 -0.090513 -0.013543
		CHANNELS 3 Zrotation Yrotation Xrotation
		JOINT rknee
		{
			OFFSET -0.043257 -0.383688 -0.004843
			CHANNELS 3 Zrotation Yrotation Xrotation
			JOINT rankle
			{
				OFFSET 0.019056 -0.420046 -0.034562
				CHANNELS 3 Zrotation Yrotation Xrotation
				JOINT rtoe
				{
					OFFSET -0.034840 -0.062106 0.130323
					CHANNELS 3 Zrotation Yrotation Xrotation
					End Site
					{
						OFFSET 0.000000 0.000000 0.000000
					}
				}
			}
		}
	}
	JOINT lowerback
	{
		OFFSET 0.004439 0.124404 -0.038385
		CHANNELS 3 Zrotation Yrotation Xrotation
		JOINT upperback
		{
			OFFSET 0.004488 0.137956 0.026820
			CHANNELS 3 Zrotation Yrotation Xrotation
			JOINT chest
			{
				OFFSET -0.002265 0.056032 0.002855
				CHANNELS 3 Zrotation Yrotation Xrotation
				JOINT lowerneck
				{
					OFFSET -0.013390 0.211636 -0.033468
					CHANNELS 3 Zrotation Yrotation Xrotation
					JOINT upperneck
					{
						OFFSET 0.010113 0.088937 0.050410
						CHANNELS 3 Zrotation Yrotation Xrotation
						End Site
						{
							OFFSET 0.000000 0.000000 0.000000
						}
					}
				}
				JOINT lclavicle
				{
					OFFSET 0.071702 0.114000 -0.018898
					CHANNELS 3 Zrotation Yrotation Xrotation
					JOINT lshoulder
					{
						OFFSET 0.122921 0.045205 -0.019046
						CHANNELS 3 Zrotation Yrotation Xrotation
						JOINT lelbow
						{
							OFFSET 0.255332 -0.015649 -0.022946
							CHANNELS 3 Zrotation Yrotation Xrotation
							JOINT lwrist
							{
								OFFSET 0.265709 0.012698 -0.007375
								CHANNELS 3 Zrotation Yrotation Xrotation
								End Site
								{
									OFFSET 0.000000 0.000000 0.000000
								}
							}
						}
					}
				}
				JOINT rclavicle
				{
					OFFSET -0.082954 0.112472 -0.023707
					CHANNELS 3 Zrotation Yrotation Xrotation
					JOINT rshoulder
					{
						OFFSET -0.113228 0.046853 -0.008472
						CHANNELS 3 Zrotation Yrotation Xrotation
						JOINT relbow
						{
							OFFSET -0.260127 -0.014369 -0.031269
							CHANNELS 3 Zrotation Yrotation Xrotation
							JOINT rwrist
							{
								OFFSET -0.269108 0.006794 -0.006027
								CHANNELS 3 Zrotation Yrotation Xrotation
								End Site
								{
									OFFSET 0.000000 0.000000 0.000000
								}
							}
						}
					}
				}
			}
		}
	}
}
MOTION
Frames: 7
Frame Time: 0.033333
-0.426636 0.932225 1.013490 -85.271361 12.338956 88.912218 4.610181 -0.068311 -9.712393 -8.707450 -10.952540 24.134146 7.976793 27.265976 -17.628805 0.000000 -0.000000 0.000000 -16.953654 1.526636 -25.794120 2.237570 -2.223493 94.164134 4.888435 -24.248452 6.665454 0.000000 -0.000000 0.000000 2.140143 -9.408847 21.025835 6.583142 -5.370596 -19.019321 3.507834 -5.972600 2.442671 6.185396 -21.874688 -6.969672 6.276026 -5.886817 -16.215737 3.543308 -3.284128 -3.588569 -16.032614 -4.621468 -4.617381 6.425798 -35.366731 19.718362 45.559457 -23.015235 20.166053 -12.609351 -2.596015 -16.570404 5.342341 4.018142 -7.649525 -21.080794 28.171599 -2.326861 -35.595753 14.931019 29.816328 
-0.426498 0.923905 1.027153 -83.448214 12.175238 89.012796 4.307361 -0.423937 -7.598371 -8.728957 -13.671539 20.462796 6.686996 26.331954 -13.970101 0.000000 -0.000000 0.000000 -16.850195 4.355077 -34.078714 1.179129 -5.282970 109.875809 5.581243 -21.277668 2.986246 0.000000 -0.000000 0.000000 2.315925 -12.096697 22.702531 6.102153 -4.883283 -19.805077 2.726655 -6.244011 1.660259 6.513601 -20.910520 -6.857212 5.414546 -6.609013 -16.952854 4.446551 -3.322319 -4.258358 -16.536320 -3.161067 -3.682459 7.248091 -36.591159 18.860170 44.198524 -23.804443 20.761455 -15.335940 -2.816201 -17.570188 3.258988 5.165573 -9.420294 -23.557776 32.393829 -4.545457 -37.102401 16.194838 27.542848 
-0.427933 0.916259 1.035856 -81.790599 11.739458 88.712238 3.929065 -0.127695 -5.356219 -8.913516 -15.728025 17.422540 5.791101 25.270976 -11.074823 0.000000 -0.000000 0.000000 -16.710646 7.000767 -42.639910 1.297867 -8.295632 121.726154 6.535301 -17.330469 0.279436 0.000000 -0.000000 0.000000 2.279650 -14.618600 24.483338 5.302389 -4.344866 -20.720415 1.773681 -6.450568 1.151636 6.656790 -19.669282 -6.595951 4.526017 -6.817785 -17.301225 5.636059 -3.299541 -5.191391 -17.322513 -2.157799 -2.694998 8.240353 -37.677173 18.054551 42.953117 -24.505284 21.245047 -18.329988 -3.130281 -18.691983 2.009446 6.903647 -11.334540 -27.031347 36.305829 -7.627220 -37.477838 16.568214 24.775305 
-0.432156 0.908224 1.039664 -79.917305 10.970904 87.507648 3.064681 0.813725 -2.252796 -8.978793 -17.243088 14.864389 5.407319 24.300174 -9.205979 0.000000 -0.000000 0.000000 -15.699373 9.026433 -50.066732 1.351465 -11.104097 128.668305 6.792922 -15.009756 -0.945226 0.000000 -0.000000 0.000000 1.864661 -16.908377 26.728444 4.076995 -3.937459 -21.679438 0.819726 -6.735370 0.992453 6.594498 -18.587379 -6.354053 3.649756 -6.350115 -17.093239 6.514130 -3.455579 -6.141673 -17.726560 -1.659516 -1.726233 9.246103 -38.489194 17.180602 42.389138 -25.062636 21.465879 -21.226516 -3.225856 -20.016328 0.821249 9.063960 -13.179906 -31.005891 39.352358 -12.053559 -38.142821 16.511408 21.413404 
-0.438440 0.899138 1.039159 -77.737737 9.751810 85.609368 1.507581 2.151389 1.543846 -8.769786 -18.213928 12.731289 5.298609 23.445229 -8.557877 0.000000 -0.000000 0.000000 -13.516529 10.619518 -55.648544 1.277980 -13.494959 129.838967 6.433450 -13.654778 -1.289234 0.000000 -0.000000 0.000000 0.933159 -18.695356 29.164308 2.568167 -3.758760 -22.372021 -0.000649 -7.060664 0.940559 6.302282 -17.516029 -6.280570 2.784111 -5.666123 -16.569137 6.443302 -3.931392 -7.105973 -17.208771 -1.847190 -0.421464 10.312646 -38.947523 15.348045 41.919103 -25.650258 21.908666 -22.993823 -2.700282 -21.336344 -2.385874 11.434633 -15.141781 -34.027206 41.286031 -17.640224 -38.878336 15.645931 16.895358 
-0.445658 0.888580 1.035184 -75.338064 8.061663 83.600017 -0.794615 3.672018 5.372671 -8.189584 -19.103702 11.170146 5.376663 22.685146 -9.002811 0.000000 -0.000000 0.000000 -10.102359 11.805500 -59.240723 2.185547 -15.198067 125.162297 6.081737 -11.698479 -0.866615 0.000000 -0.000000 0.000000 -0.332202 -19.828760 30.991180 0.834621 -3.890940 -22.452349 -0.665269 -7.458482 0.822590 5.892085 -16.545596 -6.028611 2.135906 -4.411965 -16.088856 5.871317 -4.786124 -8.071725 -16.293943 -2.253799 1.105436 11.307565 -39.209622 12.648498 41.364616 -26.215981 22.581400 -24.499363 -1.614631 -22.952087 -6.386248 14.204765 -17.531658 -35.125487 42.207810 -23.520363 -38.248495 13.537191 11.190049 
-0.453139 0.876944 1.028514 -73.069975 6.086407 81.903719 -3.554271 5.208722 8.521892 -7.584314 -20.066989 10.599501 5.760616 22.051371 -10.253228 0.000000 -0.000000 0.000000 -5.695094 12.983798 -60.647979 4.935628 -15.944023 115.418039 5.938988 -9.476546 0.470853 0.000000 -0.000000 0.000000 -1.817733 -20.183984 31.828608 -0.885263 -4.164281 -21.978734 -1.138237 -7.856490 0.774366 5.586743 -15.503411 -5.707035 1.627542 -2.372719 -15.510218 5.389568 -5.736460 -8.932353 -15.781620 -2.719241 2.761186 12.226069 -39.436898 10.241482 41.035669 -26.395840 22.962713 -26.219262 -0.250323 -24.814075 -10.019643 17.713918 -20.277834 -34.803721 42.366486 -29.367460 -36.138646 10.301071 3.879613 
